Coordinates
version=1
nRows=11
nColumns=40
inDegrees=yes

Units are S.I. units (second, meters, Newtons, ...)
Angles are in degrees.

endheader
time	pelvis_tilt	pelvis_list	pelvis_rotation	pelvis_tx	pelvis_ty	pelvis_tz	hip_flexion_r	hip_adduction_r	hip_rotation_r	knee_angle_r	knee_angle_r_beta	ankle_angle_r	subtalar_angle_r	mtp_angle_r	hip_flexion_l	hip_adduction_l	hip_rotation_l	knee_angle_l	knee_angle_l_beta	ankle_angle_l	subtalar_angle_l	mtp_angle_l	lumbar_extension	lumbar_bending	lumbar_rotation	arm_flex_r	arm_add_r	arm_rot_r	elbow_flex_r	pro_sup_r	wrist_flex_r	wrist_dev_r	arm_flex_l	arm_add_l	arm_rot_l	elbow_flex_l	pro_sup_l	wrist_flex_l	wrist_dev_l
     34.24000000	     -2.46833911	     -4.62223575	      2.91216156	      1.05972326	      0.93183531	      0.46037828	     10.00272759	      3.32077593	    -13.65830268	     15.56887671	     15.56887671	      9.54009722	     -2.81975805	     -7.16199239	     32.70575489	    -14.94033223	      0.69508182	     65.38988390	     65.38988390	      2.57031547	    -18.50133780	     11.04385659	     -9.82939001	      5.49931145	      2.01049978	     22.82056073	    -20.99317185	     -2.33554399	     73.80911576	     45.22332294	      0.00000000	      0.00000000	     -1.85645516	     -8.42418806	     -5.43934626	     31.55273627	     45.58150726	      0.00000000	      0.00000000
     34.25321429	     -2.62453509	     -4.55869974	      3.42495713	      1.05823955	      0.93204503	      0.46088823	      9.51158077	      3.37667085	    -13.99726042	     14.87888189	     14.87888189	      9.58606404	     -2.82587304	     -7.12872676	     33.62321589	    -14.77798710	      0.57218601	     63.10534750	     63.10534750	      3.31214179	    -18.69612619	     11.28429974	     -9.80317212	      5.38163754	      1.75441586	     24.30290273	    -20.90669695	     -2.48978844	     75.66125815	     45.17615109	      0.00000000	      0.00000000	     -2.63905047	     -8.10614022	     -5.22759417	     31.07168599	     45.54534815	      0.00000000	      0.00000000
     34.26642857	     -2.84763553	     -4.46880330	      3.90304068	      1.05662825	      0.93207662	      0.46136172	      9.21943892	      3.37823654	    -14.29556592	     14.41074278	     14.41074278	      9.68566508	     -2.89791492	     -7.10549720	     34.45434258	    -14.53981795	      0.37632174	     60.57647304	     60.57647304	      3.99658987	    -18.84454984	     11.53816901	     -9.70679685	      5.21462668	      1.77308467	     25.76678242	    -21.11858009	     -2.71156057	     77.07673412	     45.14487613	      0.00000000	      0.00000000	     -3.30444024	     -7.74475013	     -5.08179535	     30.80013524	     45.51632204	      0.00000000	      0.00000000
     34.27964286	     -2.93335685	     -4.46555219	      4.44567583	      1.05519984	      0.93223707	      0.46167829	      8.64602754	      3.49393344	    -14.72397286	     13.69451023	     13.69451023	      9.71611714	     -2.77608220	     -7.16904798	     35.02389180	    -14.28453084	      0.31005017	     57.85768336	     57.85768336	      4.80746349	    -18.88553249	     12.31185207	     -9.83089184	      5.21276022	      1.49278220	     26.93567556	    -21.09381604	     -2.79524048	     80.26209352	     45.05376209	      0.00000000	      0.00000000	     -4.13466641	     -7.48832733	     -4.71621654	     30.57014947	     45.45830490	      0.00000000	      0.00000000
     34.29285714	     -3.06953986	     -4.39717680	      4.92681426	      1.05368130	      0.93224646	      0.46183680	      8.26420779	      3.49801810	    -15.09266861	     13.22958412	     13.22958412	      9.77096331	     -2.77796052	     -7.23881953	     35.44951307	    -13.89641555	      0.17182730	     54.91096442	     54.91096442	      5.60951897	    -18.93812925	     12.99153185	     -9.89757433	      5.12795872	      1.52554884	     28.02467651	    -21.28006072	     -3.05761466	     82.54404683	     44.99840927	      0.00000000	      0.00000000	     -4.74158405	     -7.22830749	     -4.35329481	     30.39578981	     45.40269030	      0.00000000	      0.00000000
     34.30607143	     -3.36664833	     -4.36483416	      5.38168868	      1.05196221	      0.93189552	      0.46187356	      8.16150897	      3.50082215	    -15.36739919	     12.92984255	     12.92984255	      9.91951307	     -2.87702934	     -7.27909045	     35.98910997	    -13.46604430	      0.09070495	     51.84426027	     51.84426027	      6.08386445	    -18.88188249	     13.38643168	     -9.76726539	      5.08468922	      1.72058732	     29.39917869	    -21.66190577	     -3.37039062	     83.67094471	     44.98012284	      0.00000000	      0.00000000	     -5.23111849	     -6.92615213	     -4.19619092	     30.23416723	     45.37399948	      0.00000000	      0.00000000
     34.31928571	     -3.48951638	     -4.30714898	      5.84976640	      1.05044461	      0.93178619	      0.46173666	      7.82133305	      3.48365750	    -15.69912995	     12.56718947	     12.56718947	     10.04413755	     -2.84562499	     -7.34954734	     36.13964173	    -12.91339331	      0.11991644	     48.54758420	     48.54758420	      6.54628616	    -18.81456581	     13.83731020	     -9.83357535	      5.02186190	      1.64860576	     30.59743942	    -21.62725357	     -3.57796142	     85.59709450	     44.93323086	      0.00000000	      0.00000000	     -5.78640541	     -6.75693232	     -3.95560924	     30.01102192	     45.33362192	      0.00000000	      0.00000000
     34.33250000	     -3.65676602	     -4.31337379	      6.29362279	      1.04889801	      0.93145705	      0.46142316	      7.58623194	      3.50034593	    -16.08698865	     12.29703093	     12.29703093	     10.17613318	     -2.75113564	     -7.48305263	     36.26604241	    -12.34348390	      0.29394812	     45.20215416	     45.20215416	      6.95372163	    -18.60215945	     14.07957519	     -9.87520019	      5.06447323	      1.68539316	     31.62722677	    -21.72703661	     -3.82734057	     87.58882181	     44.88653651	      0.00000000	      0.00000000	     -6.24468802	     -6.58870208	     -3.67675434	     29.87553408	     45.28987708	      0.00000000	      0.00000000
     34.34571429	     -3.91800320	     -4.37094618	      6.69847334	      1.04727922	      0.93085540	      0.46097074	      7.52224046	      3.53853101	    -16.42233034	     12.13488359	     12.13488359	     10.33536153	     -2.76676629	     -7.59804425	     36.43745281	    -11.77050685	      0.58335060	     41.86688248	     41.86688248	      7.30085662	    -18.18967560	     14.19984377	     -9.79419372	      5.14364327	      1.87326364	     32.74654952	    -21.98792094	     -4.10299049	     88.83416016	     44.86348328	      0.00000000	      0.00000000	     -6.57850738	     -6.39428703	     -3.50721955	     29.78800698	     45.26238168	      0.00000000	      0.00000000
     34.35892857	     -4.04766888	     -4.41150864	      7.09330878	      1.04588489	      0.93039371	      0.46038297	      7.30596183	      3.52614995	    -16.99140168	     12.01310633	     12.01310633	     10.50615180	     -2.33213389	     -7.95023592	     36.22450802	    -11.19791715	      0.85856295	     38.27644214	     38.27644214	      6.75425052	    -17.73198421	     12.09710392	     -9.91317202	      5.24390672	      2.67191253	     32.72505068	    -22.62981577	     -5.21303549	     92.07698347	     44.82944883	      0.00000000	      0.00000000	     -6.58483236	     -6.43502867	     -2.20267500	     29.78018288	     45.10437634	      0.00000000	      0.00000000
     34.37214286	     -4.23400650	     -4.48554993	      7.42888068	      1.04451206	      0.92980698	      0.45978736	      7.18454914	      3.58520374	    -17.22668616	     11.91896733	     11.91896733	     10.71361843	     -2.40607277	     -8.03061654	     36.11568362	    -10.67796129	      1.19009744	     35.02742645	     35.02742645	      7.07434178	    -16.67082840	     12.19415086	     -9.87697545	      5.33317081	      2.73300268	     33.83940444	    -22.59284414	     -5.35856875	     92.81703092	     44.81931567	      0.00000000	      0.00000000	     -6.86732220	     -6.37380499	     -2.05524650	     29.64179806	     45.08387560	      0.00000000	      0.00000000
